<svg xmlns="http://www.w3.org/2000/svg" viewBox="-111.3 -43.9 222.8 156.2" role="img" aria-label="service-ai"><ellipse cx="0.1" cy="86.3" rx="71.5" ry="17.9" fill="#1e1e1e" opacity="0.06"/><polygon points="89.46,38.29 -1.55,82.75 0.22,90.31 88.46,46.91" fill="#d3c096" stroke="#1e1e1e" stroke-width="1.7" stroke-linejoin="round" stroke-linecap="round"/><polygon points="-89.30,38.09 -1.55,82.75 0.22,90.31 -88.71,48.27" fill="#e3d6b6" stroke="#1e1e1e" stroke-width="1.7" stroke-linejoin="round" stroke-linecap="round"/><polygon points="-1.36,-5.66 89.46,38.29 -1.55,82.75 -89.30,38.09" fill="#f1e8d2" stroke="#1e1e1e" stroke-width="1.7" stroke-linejoin="round" stroke-linecap="round"/><polygon points="27.67,9.01 -3.84,23.63 -1.49,44.00 27.83,26.80" fill="#c5347f" stroke="#1e1e1e" stroke-width="1.7" stroke-linejoin="round" stroke-linecap="round"/><polygon points="-33.89,9.64 -3.84,23.63 -1.49,44.00 -33.10,28.79" fill="#e84a9b" stroke="#1e1e1e" stroke-width="1.7" stroke-linejoin="round" stroke-linecap="round"/><polygon points="-2.15,-7.12 27.67,9.01 -3.84,23.63 -33.89,9.64" fill="#f173b4" stroke="#1e1e1e" stroke-width="1.7" stroke-linejoin="round" stroke-linecap="round"/><polygon points="21.61,-9.69 -2.51,2.98 -2.77,21.04 20.84,8.81" fill="#0e7a3c" stroke="#1e1e1e" stroke-width="1.7" stroke-linejoin="round" stroke-linecap="round"/><polygon points="-26.87,-8.96 -2.51,2.98 -2.77,21.04 -27.34,7.43" fill="#159b4f" stroke="#1e1e1e" stroke-width="1.7" stroke-linejoin="round" stroke-linecap="round"/><polygon points="-2.86,-21.87 21.61,-9.69 -2.51,2.98 -26.87,-8.96" fill="#34c47c" stroke="#1e1e1e" stroke-width="1.7" stroke-linejoin="round" stroke-linecap="round"/><polygon points="24.80,49.21 3.30,60.63 2.58,74.03 27.01,61.30" fill="#5cb98a" stroke="#1e1e1e" stroke-width="1.7" stroke-linejoin="round" stroke-linecap="round"/><polygon points="-21.28,48.55 3.30,60.63 2.58,74.03 -19.78,61.24" fill="#84d3a8" stroke="#1e1e1e" stroke-width="1.7" stroke-linejoin="round" stroke-linecap="round"/><polygon points="2.54,34.80 24.80,49.21 3.30,60.63 -21.28,48.55" fill="#a8e6c6" stroke="#1e1e1e" stroke-width="1.7" stroke-linejoin="round" stroke-linecap="round"/><rect x="47.4" y="-33.7" rx="8" ry="8" width="48" height="34" fill="#159b4f" stroke="#1e1e1e" stroke-width="1.6"/><polygon points="57.4,-1.7 69.4,-1.7 59.4,8.3" fill="#159b4f" stroke="#1e1e1e" stroke-width="1.6" stroke-linejoin="round"/><path d="M 71.4 -24.7 L 73.8 -19.1 L 79.4 -16.7 L 73.8 -14.3 L 71.4 -8.7 L 69.0 -14.3 L 63.4 -16.7 L 69.0 -19.1 Z" fill="#f173b4" stroke="#1e1e1e" stroke-width="1"/></svg>