<svg xmlns="http://www.w3.org/2000/svg" viewBox="-111.3 -42.9 222.8 155.2" role="img" aria-label="service-dev"><ellipse cx="0.1" cy="86.3" rx="71.5" ry="17.9" fill="#1e1e1e" opacity="0.06"/><polygon points="89.46,38.29 -1.55,82.75 0.22,90.31 88.46,46.91" fill="#d3c096" stroke="#1e1e1e" stroke-width="1.7" stroke-linejoin="round" stroke-linecap="round"/><polygon points="-89.30,38.09 -1.55,82.75 0.22,90.31 -88.71,48.27" fill="#e3d6b6" stroke="#1e1e1e" stroke-width="1.7" stroke-linejoin="round" stroke-linecap="round"/><polygon points="-1.36,-5.66 89.46,38.29 -1.55,82.75 -89.30,38.09" fill="#f1e8d2" stroke="#1e1e1e" stroke-width="1.7" stroke-linejoin="round" stroke-linecap="round"/><polygon points="12.90,15.88 5.68,18.96 2.90,71.04 10.45,67.31" fill="#281c16" stroke="#1e1e1e" stroke-width="1.7" stroke-linejoin="round" stroke-linecap="round"/><polygon points="-70.30,-17.64 5.68,18.96 2.90,71.04 -70.02,30.68" fill="#3a2a24" stroke="#1e1e1e" stroke-width="1.7" stroke-linejoin="round" stroke-linecap="round"/><polygon points="-62.92,-20.90 12.90,15.88 5.68,18.96 -70.30,-17.64" fill="#5e4a3c" stroke="#1e1e1e" stroke-width="1.7" stroke-linejoin="round" stroke-linecap="round"/><polygon points="10.29,16.08 9.50,16.11 7.98,60.13 7.71,57.49" fill="#5cb98a" stroke="#1e1e1e" stroke-width="1.7" stroke-linejoin="round" stroke-linecap="round"/><polygon points="-59.38,-17.39 9.50,16.11 7.98,60.13 -59.63,26.96" fill="#84d3a8" stroke="#1e1e1e" stroke-width="1.7" stroke-linejoin="round" stroke-linecap="round"/><polygon points="-57.28,-17.02 10.29,16.08 9.50,16.11 -59.38,-17.39" fill="#a8e6c6" stroke="#1e1e1e" stroke-width="1.7" stroke-linejoin="round" stroke-linecap="round"/><polygon points="10.29,16.08 9.50,16.11 8.49,20.48 9.97,21.28" fill="#c5347f" stroke="#1e1e1e" stroke-width="1.7" stroke-linejoin="round" stroke-linecap="round"/><polygon points="-59.38,-17.39 9.50,16.11 8.49,20.48 -60.09,-11.15" fill="#e84a9b" stroke="#1e1e1e" stroke-width="1.7" stroke-linejoin="round" stroke-linecap="round"/><polygon points="-57.28,-17.02 10.29,16.08 9.50,16.11 -59.38,-17.39" fill="#f173b4" stroke="#1e1e1e" stroke-width="1.7" stroke-linejoin="round" stroke-linecap="round"/><polygon points="24.58,11.54 1.49,24.13 0.24,35.15 26.62,23.43" fill="#0e7a3c" stroke="#1e1e1e" stroke-width="1.7" stroke-linejoin="round" stroke-linecap="round"/><polygon points="-29.52,9.13 1.49,24.13 0.24,35.15 -27.85,20.99" fill="#159b4f" stroke="#1e1e1e" stroke-width="1.7" stroke-linejoin="round" stroke-linecap="round"/><polygon points="-1.55,-3.36 24.58,11.54 1.49,24.13 -29.52,9.13" fill="#34c47c" stroke="#1e1e1e" stroke-width="1.7" stroke-linejoin="round" stroke-linecap="round"/><polygon points="61.24,25.22 24.26,45.52 23.54,60.44 60.43,43.61" fill="#c5347f" stroke="#1e1e1e" stroke-width="1.7" stroke-linejoin="round" stroke-linecap="round"/><polygon points="-0.50,33.52 24.26,45.52 23.54,60.44 -0.66,50.03" fill="#e84a9b" stroke="#1e1e1e" stroke-width="1.7" stroke-linejoin="round" stroke-linecap="round"/><polygon points="35.74,14.67 61.24,25.22 24.26,45.52 -0.50,33.52" fill="#f173b4" stroke="#1e1e1e" stroke-width="1.7" stroke-linejoin="round" stroke-linecap="round"/><polygon points="-7.20,33.50 -26.24,40.40 -24.88,47.94 -6.69,39.15" fill="#0e7a3c" stroke="#1e1e1e" stroke-width="1.7" stroke-linejoin="round" stroke-linecap="round"/><polygon points="-45.34,30.48 -26.24,40.40 -24.88,47.94 -46.12,40.55" fill="#159b4f" stroke="#1e1e1e" stroke-width="1.7" stroke-linejoin="round" stroke-linecap="round"/><polygon points="-30.06,23.07 -7.20,33.50 -26.24,40.40 -45.34,30.48" fill="#34c47c" stroke="#1e1e1e" stroke-width="1.7" stroke-linejoin="round" stroke-linecap="round"/></svg>