<svg xmlns="http://www.w3.org/2000/svg" viewBox="-111.3 -34.2 222.8 146.5" role="img" aria-label="service-hardware"><ellipse cx="0.1" cy="86.3" rx="71.5" ry="17.9" fill="#1e1e1e" opacity="0.06"/><polygon points="89.46,38.29 -1.55,82.75 0.22,90.31 88.46,46.91" fill="#d3c096" stroke="#1e1e1e" stroke-width="1.7" stroke-linejoin="round" stroke-linecap="round"/><polygon points="-89.30,38.09 -1.55,82.75 0.22,90.31 -88.71,48.27" fill="#e3d6b6" stroke="#1e1e1e" stroke-width="1.7" stroke-linejoin="round" stroke-linecap="round"/><polygon points="-1.36,-5.66 89.46,38.29 -1.55,82.75 -89.30,38.09" fill="#f1e8d2" stroke="#1e1e1e" stroke-width="1.7" stroke-linejoin="round" stroke-linecap="round"/><polygon points="37.28,15.62 -0.18,33.24 -0.08,61.35 37.13,41.02" fill="#281c16" stroke="#1e1e1e" stroke-width="1.7" stroke-linejoin="round" stroke-linecap="round"/><polygon points="-35.53,13.74 -0.18,33.24 -0.08,61.35 -37.51,40.99" fill="#3a2a24" stroke="#1e1e1e" stroke-width="1.7" stroke-linejoin="round" stroke-linecap="round"/><polygon points="-0.78,-1.79 37.28,15.62 -0.18,33.24 -35.53,13.74" fill="#5e4a3c" stroke="#1e1e1e" stroke-width="1.7" stroke-linejoin="round" stroke-linecap="round"/><polygon points="34.49,17.65 33.69,20.63 33.71,35.48 34.22,33.41" fill="#5cb98a" stroke="#1e1e1e" stroke-width="1.7" stroke-linejoin="round" stroke-linecap="round"/><polygon points="1.84,4.98 33.69,20.63 33.71,35.48 1.74,17.95" fill="#84d3a8" stroke="#1e1e1e" stroke-width="1.7" stroke-linejoin="round" stroke-linecap="round"/><polygon points="4.23,4.57 34.49,17.65 33.69,20.63 1.84,4.98" fill="#a8e6c6" stroke="#1e1e1e" stroke-width="1.7" stroke-linejoin="round" stroke-linecap="round"/><polygon points="20.10,-0.35 -0.29,7.48 -0.14,26.94 22.32,15.36" fill="#0e7a3c" stroke="#1e1e1e" stroke-width="1.7" stroke-linejoin="round" stroke-linecap="round"/><polygon points="-20.82,-0.97 -0.29,7.48 -0.14,26.94 -20.35,14.57" fill="#159b4f" stroke="#1e1e1e" stroke-width="1.7" stroke-linejoin="round" stroke-linecap="round"/><polygon points="0.53,-12.18 20.10,-0.35 -0.29,7.48 -20.82,-0.97" fill="#34c47c" stroke="#1e1e1e" stroke-width="1.7" stroke-linejoin="round" stroke-linecap="round"/><line x1="0.0" y1="-1.6" x2="0.0" y2="-20.8" stroke="#1e1e1e" stroke-width="1.8"/><circle cx="0.0" cy="-20.8" r="3.6" fill="#e84a9b" stroke="#1e1e1e" stroke-width="1.4"/><path d="M 5.0 -26.3 A 10 10 0 0 1 5.0 -15.3" fill="none" stroke="#e84a9b" stroke-width="2.2" stroke-linecap="round" opacity="0.90"/><path d="M 8.5 -30.2 A 17 17 0 0 1 8.5 -11.5" fill="none" stroke="#e84a9b" stroke-width="2.2" stroke-linecap="round" opacity="0.68"/><path d="M 12.0 -34.0 A 24 24 0 0 1 12.0 -7.6" fill="none" stroke="#e84a9b" stroke-width="2.2" stroke-linecap="round" opacity="0.46"/></svg>