<svg xmlns="http://www.w3.org/2000/svg" viewBox="-111.3 -27.7 222.8 140.0" role="img" aria-label="service-japan"><ellipse cx="0.1" cy="86.3" rx="71.5" ry="17.9" fill="#1e1e1e" opacity="0.06"/><polygon points="89.46,38.29 -1.55,82.75 0.22,90.31 88.46,46.91" fill="#d3c096" stroke="#1e1e1e" stroke-width="1.7" stroke-linejoin="round" stroke-linecap="round"/><polygon points="-89.30,38.09 -1.55,82.75 0.22,90.31 -88.71,48.27" fill="#e3d6b6" stroke="#1e1e1e" stroke-width="1.7" stroke-linejoin="round" stroke-linecap="round"/><polygon points="-1.36,-5.66 89.46,38.29 -1.55,82.75 -89.30,38.09" fill="#f1e8d2" stroke="#1e1e1e" stroke-width="1.7" stroke-linejoin="round" stroke-linecap="round"/><polygon points="-21.73,18.13 -46.39,31.15 -46.51,54.86 -21.12,41.14" fill="#c5347f" stroke="#1e1e1e" stroke-width="1.7" stroke-linejoin="round" stroke-linecap="round"/><polygon points="-72.62,16.67 -46.39,31.15 -46.51,54.86 -73.43,40.44" fill="#e84a9b" stroke="#1e1e1e" stroke-width="1.7" stroke-linejoin="round" stroke-linecap="round"/><polygon points="-47.86,4.69 -21.73,18.13 -46.39,31.15 -72.62,16.67" fill="#f173b4" stroke="#1e1e1e" stroke-width="1.7" stroke-linejoin="round" stroke-linecap="round"/><polygon points="21.06,21.69 2.39,29.19 4.09,68.73 20.56,58.76" fill="#0e7a3c" stroke="#1e1e1e" stroke-width="1.7" stroke-linejoin="round" stroke-linecap="round"/><polygon points="-15.05,19.90 2.39,29.19 4.09,68.73 -15.32,58.68" fill="#159b4f" stroke="#1e1e1e" stroke-width="1.7" stroke-linejoin="round" stroke-linecap="round"/><polygon points="2.69,10.81 21.06,21.69 2.39,29.19 -15.05,19.90" fill="#34c47c" stroke="#1e1e1e" stroke-width="1.7" stroke-linejoin="round" stroke-linecap="round"/><polygon points="47.87,23.07 28.76,33.31 27.03,54.83 46.49,45.20" fill="#0e7a3c" stroke="#1e1e1e" stroke-width="1.7" stroke-linejoin="round" stroke-linecap="round"/><polygon points="9.90,23.92 28.76,33.31 27.03,54.83 11.89,48.02" fill="#159b4f" stroke="#1e1e1e" stroke-width="1.7" stroke-linejoin="round" stroke-linecap="round"/><polygon points="29.77,13.87 47.87,23.07 28.76,33.31 9.90,23.92" fill="#34c47c" stroke="#1e1e1e" stroke-width="1.7" stroke-linejoin="round" stroke-linecap="round"/><polygon points="-9.25,35.31 -26.27,44.25 -25.44,60.63 -11.94,51.67" fill="#5cb98a" stroke="#1e1e1e" stroke-width="1.7" stroke-linejoin="round" stroke-linecap="round"/><polygon points="-42.67,34.27 -26.27,44.25 -25.44,60.63 -40.63,51.98" fill="#84d3a8" stroke="#1e1e1e" stroke-width="1.7" stroke-linejoin="round" stroke-linecap="round"/><polygon points="-26.37,26.28 -9.25,35.31 -26.27,44.25 -42.67,34.27" fill="#a8e6c6" stroke="#1e1e1e" stroke-width="1.7" stroke-linejoin="round" stroke-linecap="round"/><path d="M -46.8 16.4 Q -1.3 -27.6 1.3 10.6" fill="none" stroke="#1e1e1e" stroke-width="3" stroke-linecap="round"/><polygon points="-7.7,5.6 6.3,3.6 4.3,18.6" fill="#1e1e1e"/></svg>